<?xml version="1.0" encoding="iso-8859-1"?>
<!-- Generator: Adobe Illustrator 19.0.0, SVG Export Plug-In . SVG Version: 6.00 Build 0)  -->
<svg xmlns="http://www.w3.org/2000/svg" xmlns:xlink="http://www.w3.org/1999/xlink" version="1.1" id="Capa_1" x="0px" y="0px" viewBox="0 0 512 512" style="enable-background:new 0 0 512 512;" xml:space="preserve" width="512px" height="512px">
<g>
	<g>
		<path d="M256,21.333C114.833,21.333,0,126.604,0,256c0,57.562,22.75,112.312,64.292,155.292L3.125,472.458    c-3.042,3.042-3.958,7.646-2.313,11.625c1.646,3.979,5.542,6.583,9.854,6.583H256c141.167,0,256-105.271,256-234.667    S397.167,21.333,256,21.333z M128,277.333c5.875,0,10.667-4.792,10.667-10.667c-5.896,0-10.667-4.771-10.667-10.667    c0-5.896,4.771-10.667,10.667-10.667h10.667c5.896,0,10.667,4.771,10.667,10.667v10.667c0,17.646-14.354,32-32,32    s-32-14.354-32-32V224c0-17.646,14.354-32,32-32s32,14.354,32,32c0,5.896-4.771,10.667-10.667,10.667    c-5.896,0-10.667-4.771-10.667-10.667c0-5.875-4.792-10.667-10.667-10.667s-10.667,4.792-10.667,10.667v42.667    C117.333,272.542,122.125,277.333,128,277.333z M224,234.667c5.896,0,10.667,4.771,10.667,10.667    c0,5.896-4.771,10.667-10.667,10.667h-21.333v21.333h32c5.896,0,10.667,4.771,10.667,10.667s-4.771,10.667-10.667,10.667H192    c-5.896,0-10.667-4.771-10.667-10.667v-85.333c0-5.896,4.771-10.667,10.667-10.667h42.667c5.896,0,10.667,4.771,10.667,10.667    c0,5.896-4.771,10.667-10.667,10.667h-32v21.333H224z M309.333,234.667c5.896,0,10.667,4.771,10.667,10.667    c0,5.896-4.771,10.667-10.667,10.667H288v21.333h32c5.896,0,10.667,4.771,10.667,10.667s-4.771,10.667-10.667,10.667h-42.667    c-5.896,0-10.667-4.771-10.667-10.667v-85.333c0-5.896,4.771-10.667,10.667-10.667H320c5.896,0,10.667,4.771,10.667,10.667    c0,5.896-4.771,10.667-10.667,10.667h-32v21.333H309.333z M416,224c0,8.188-3.083,15.667-8.167,21.333    C412.917,251,416,258.479,416,266.667V288c0,5.896-4.771,10.667-10.667,10.667c-5.896,0-10.667-4.771-10.667-10.667v-21.333    c0-5.875-4.792-10.667-10.667-10.667h-10.667v32c0,5.896-4.771,10.667-10.667,10.667S352,293.896,352,288v-85.333    c0-5.896,4.771-10.667,10.667-10.667s10.667,4.771,10.667,10.667v32H384c5.875,0,10.667-4.792,10.667-10.667v-21.333    c0-5.896,4.771-10.667,10.667-10.667c5.896,0,10.667,4.771,10.667,10.667V224z" fill="#FFFFFF"/>
	</g>
</g>
<g>
</g>
<g>
</g>
<g>
</g>
<g>
</g>
<g>
</g>
<g>
</g>
<g>
</g>
<g>
</g>
<g>
</g>
<g>
</g>
<g>
</g>
<g>
</g>
<g>
</g>
<g>
</g>
<g>
</g>
</svg>
